<svg xmlns="http://www.w3.org/2000/svg" id="canvas" viewBox="636.639 312.59 257.243 257.243" stroke-width="8"
     height="120" width="120">
    <circle cx="765.26" cy="441.21" r="128.62" fill="white"/>
    <g transform="translate(765.26 441.21) scale(0.8) translate(-765.26 -441.21)">
        <path d="M 679.75,390.45 C 678.13 391.17, 677.01 392.29, 676.10 394.95 C 675.18 397.62, 675.80 399.54, 675.17 403.77 C 674.55 408.00, 674.14 410.68, 672.98 416.12 C 671.82 421.55, 671.10 424.69, 669.39 430.95 C 667.68 437.21, 666.53 440.68, 664.43 447.42 C 662.33 454.15, 661.13 457.70, 658.88 464.60 C 656.64 471.51, 655.35 475.29, 653.19 481.95 C 651.02 488.61, 649.92 492.14, 648.05 497.90 C 646.18 503.66, 645.42 506.41, 643.86 510.75 C 642.29 515.08, 641.04 516.72, 640.21 519.58 C 639.38 522.43, 639.69 523.37, 639.72 525.02 C 639.74 526.67, 639.77 527.06, 640.33 527.81 C 640.89 528.56, 641.56 528.94, 642.53 528.78 C 643.49 528.61, 644.04 528.35, 645.16 526.99 C 646.27 525.63, 647.16 524.89, 648.09 521.98 C 649.02 519.08, 648.83 516.98, 649.81 512.46 C 650.79 507.94, 651.44 505.19, 653.01 499.37 C 654.58 493.55, 655.61 490.03, 657.66 483.36 C 659.71 476.70, 660.98 472.92, 663.25 466.03 C 665.52 459.14, 666.75 455.61, 669.02 448.91 C 671.29 442.21, 672.52 438.74, 674.59 432.52 C 676.67 426.31, 677.64 423.22, 679.39 417.83 C 681.13 412.45, 682.02 409.80, 683.30 405.61 C 684.59 401.41, 685.62 399.72, 685.79 396.86 C 685.96 394.00, 685.37 392.61, 684.16 391.33 C 682.95 390.05, 681.36 389.72, 679.75 390.45"
              style="stroke: black; fill: black;"/>
        <path d="M 680.64,382.56 C 681.93 381.75, 681.97 380.92, 682.38 380.13 C 682.79 379.35, 682.29 379.30, 682.68 378.65 C 683.08 378.00, 682.95 378.01, 684.35 376.88 C 685.75 375.75, 686.69 374.65, 689.67 372.98 C 692.66 371.30, 695.10 370.14, 699.29 368.50 C 703.49 366.87, 706.04 365.94, 710.66 364.80 C 715.27 363.66, 717.75 363.14, 722.36 362.78 C 726.98 362.43, 729.62 362.51, 733.74 363.01 C 737.86 363.52, 739.88 364.08, 742.97 365.30 C 746.07 366.51, 747.25 367.57, 749.24 369.10 C 751.22 370.63, 751.98 371.51, 752.90 372.95 C 753.81 374.39, 753.99 374.82, 753.81 376.29 C 753.64 377.76, 753.09 378.35, 752.04 380.30 C 750.99 382.26, 750.56 383.52, 748.56 386.05 C 746.56 388.58, 745.29 390.15, 742.03 392.95 C 738.77 395.75, 736.62 397.28, 732.26 400.03 C 727.90 402.79, 725.17 404.20, 720.22 406.74 C 715.26 409.28, 712.49 410.53, 707.47 412.72 C 702.45 414.91, 699.72 415.78, 695.11 417.70 C 690.49 419.61, 688.30 420.58, 684.40 422.29 C 680.50 424.01, 678.45 424.48, 675.59 426.27 C 672.73 428.06, 671.71 428.93, 670.12 431.24 C 668.52 433.54, 667.87 435.02, 667.61 437.79 C 667.36 440.56, 667.67 442.42, 668.84 445.09 C 670.02 447.75, 671.15 448.93, 673.49 451.10 C 675.82 453.27, 677.57 453.76, 680.52 455.92 C 683.47 458.09, 685.17 459.22, 688.23 461.93 C 691.29 464.64, 692.87 466.20, 695.80 469.47 C 698.73 472.74, 700.19 474.73, 702.88 478.29 C 705.57 481.85, 706.80 483.71, 709.24 487.28 C 711.68 490.85, 712.76 492.70, 715.06 496.14 C 717.36 499.59, 718.54 501.43, 720.73 504.50 C 722.92 507.56, 723.80 508.86, 726.01 511.46 C 728.21 514.06, 729.22 515.53, 731.75 517.48 C 734.28 519.44, 736.02 520.27, 738.66 521.22 C 741.29 522.17, 742.75 522.21, 744.93 522.22 C 747.10 522.23, 748.13 521.99, 749.53 521.25 C 750.92 520.52, 751.58 519.74, 751.89 518.54 C 752.20 517.34, 751.64 516.25, 751.08 515.27 C 750.52 514.29, 750.10 514.24, 749.10 513.64 C 748.11 513.03, 747.49 512.67, 746.12 512.25 C 744.74 511.84, 743.87 512.17, 742.22 511.54 C 740.57 510.91, 739.78 510.39, 737.88 509.11 C 735.97 507.82, 734.82 507.04, 732.70 505.09 C 730.58 503.15, 729.56 502.06, 727.29 499.39 C 725.01 496.72, 723.73 494.99, 721.31 491.74 C 718.89 488.49, 717.72 486.69, 715.20 483.13 C 712.68 479.58, 711.42 477.68, 708.69 473.96 C 705.96 470.25, 704.48 468.15, 701.56 464.56 C 698.64 460.97, 697.00 459.19, 694.09 456.00 C 691.17 452.81, 689.51 451.31, 686.98 448.63 C 684.46 445.94, 683.39 444.43, 681.46 442.60 C 679.53 440.76, 678.54 440.40, 677.32 439.46 C 676.10 438.52, 675.58 438.52, 675.37 437.89 C 675.15 437.26, 675.26 437.15, 676.26 436.32 C 677.26 435.48, 678.08 435.22, 680.37 433.71 C 682.65 432.19, 684.23 430.79, 687.69 428.74 C 691.16 426.70, 693.23 425.58, 697.67 423.47 C 702.11 421.37, 704.84 420.46, 709.89 418.21 C 714.94 415.96, 717.79 414.71, 722.94 412.22 C 728.09 409.74, 730.91 408.42, 735.66 405.78 C 740.41 403.14, 742.79 401.75, 746.71 399.03 C 750.62 396.32, 752.33 394.99, 755.23 392.20 C 758.13 389.41, 759.62 388.22, 761.22 385.07 C 762.82 381.93, 763.31 379.87, 763.23 376.47 C 763.15 373.07, 762.60 371.01, 760.83 368.07 C 759.06 365.14, 757.45 363.84, 754.38 361.81 C 751.30 359.77, 749.45 359.06, 745.47 357.89 C 741.48 356.73, 739.16 356.34, 734.44 355.96 C 729.71 355.59, 726.90 355.64, 721.84 356.03 C 716.79 356.41, 714.15 356.93, 709.14 357.89 C 704.14 358.86, 701.49 359.60, 696.81 360.85 C 692.13 362.09, 689.69 362.71, 685.74 364.10 C 681.80 365.50, 679.71 365.74, 677.10 367.82 C 674.48 369.91, 673.62 371.87, 672.65 374.51 C 671.69 377.15, 671.64 379.10, 672.29 381.02 C 672.93 382.95, 674.22 383.84, 675.89 384.15 C 677.56 384.46, 679.34 383.36, 680.64 382.56"
              style="stroke: black; fill: black;"/>
        <path d="M 806.97,348.73 C 805.47 349.00, 804.25 349.20, 803.13 351.20 C 802.01 353.21, 801.90 355.06, 801.37 358.74 C 800.84 362.41, 801.08 364.67, 800.47 369.58 C 799.87 374.49, 799.40 377.52, 798.35 383.27 C 797.30 389.03, 796.64 392.11, 795.24 398.36 C 793.84 404.62, 792.93 407.96, 791.34 414.54 C 789.75 421.13, 788.90 424.45, 787.29 431.27 C 785.68 438.09, 784.77 441.76, 783.28 448.63 C 781.79 455.50, 781.15 458.94, 779.84 465.60 C 778.54 472.25, 777.81 475.62, 776.76 481.90 C 775.71 488.18, 775.26 491.44, 774.59 497.01 C 773.93 502.59, 773.84 505.14, 773.43 509.77 C 773.02 514.39, 772.54 516.53, 772.54 520.14 C 772.54 523.74, 772.47 525.37, 773.42 527.78 C 774.37 530.19, 775.28 531.01, 777.28 532.19 C 779.28 533.36, 780.88 534.04, 783.42 533.67 C 785.95 533.30, 787.49 532.70, 789.95 530.33 C 792.41 527.95, 792.89 525.64, 795.70 521.79 C 798.50 517.93, 800.07 515.77, 803.98 511.06 C 807.88 506.34, 810.36 503.58, 815.23 498.21 C 820.09 492.84, 822.95 489.87, 828.32 484.21 C 833.69 478.55, 836.66 475.52, 842.06 469.92 C 847.46 464.32, 850.23 461.34, 855.32 456.20 C 860.40 451.06, 863.04 448.66, 867.49 444.22 C 871.94 439.79, 873.98 437.67, 877.57 434.03 C 881.16 430.38, 882.80 428.88, 885.44 425.99 C 888.08 423.09, 890.28 421.46, 890.78 419.57 C 891.28 417.68, 889.87 416.12, 887.92 416.54 C 885.97 416.96, 883.93 418.94, 881.05 421.67 C 878.16 424.40, 876.88 426.36, 873.48 430.20 C 870.07 434.04, 868.29 436.29, 864.02 440.87 C 859.76 445.46, 857.17 447.91, 852.17 453.13 C 847.16 458.35, 844.40 461.36, 838.99 466.96 C 833.58 472.56, 830.60 475.56, 825.13 481.13 C 819.66 486.70, 816.75 489.64, 811.64 494.81 C 806.52 499.99, 803.93 502.68, 799.55 507.00 C 795.18 511.33, 793.24 513.32, 789.76 516.42 C 786.28 519.52, 784.14 520.44, 782.15 522.50 C 780.15 524.56, 780.13 525.59, 779.79 526.72 C 779.45 527.85, 780.13 528.29, 780.45 528.15 C 780.77 528.01, 781.35 527.69, 781.39 526.01 C 781.43 524.34, 780.97 522.98, 780.66 519.77 C 780.35 516.56, 779.96 514.42, 779.84 509.98 C 779.72 505.53, 779.70 502.99, 780.07 497.52 C 780.43 492.06, 780.79 488.87, 781.67 482.66 C 782.54 476.45, 783.23 473.09, 784.45 466.48 C 785.68 459.86, 786.30 456.43, 787.78 449.61 C 789.25 442.78, 790.17 439.13, 791.83 432.36 C 793.48 425.58, 794.33 422.28, 796.05 415.73 C 797.76 409.18, 798.75 405.85, 800.40 399.63 C 802.05 393.40, 802.78 390.31, 804.31 384.61 C 805.83 378.92, 806.63 375.93, 808.04 371.15 C 809.45 366.38, 810.44 364.29, 811.36 360.74 C 812.27 357.19, 812.77 355.60, 812.62 353.42 C 812.48 351.24, 811.76 350.79, 810.63 349.85 C 809.50 348.91, 808.47 348.46, 806.97 348.73"
              style="stroke: black; fill: black;"/>
    </g>
</svg>